<svg xmlns="http://www.w3.org/2000/svg" width="34.62" height="40" viewBox="0 0 34.62 40">
  <defs>
    <style>
      .cls-1 {
        fill: #efcf8d;
        fill-rule: evenodd;
      }
    </style>
  </defs>
  <path id="icon" class="cls-1" d="M1380.32,79.694l-3.05-28.964a1.184,1.184,0,0,0-1.18-1.067h-5.72v-1.3a7.37,7.37,0,0,0-14.74,0v1.3h-5.72a1.184,1.184,0,0,0-1.18,1.067l-3.05,28.964a1.236,1.236,0,0,0,.3.921,1.2,1.2,0,0,0,.89.394h32.26a1.2,1.2,0,0,0,.89-0.394A1.236,1.236,0,0,0,1380.32,79.694Zm-22.31-31.334a4.99,4.99,0,0,1,9.98,0v1.3h-9.98v-1.3Zm-9.82,30.268,2.79-26.582h4.65V54.67a1.19,1.19,0,1,0,2.38,0V52.045h9.98V54.67a1.19,1.19,0,1,0,2.38,0V52.045h4.65l2.79,26.582h-29.62Z" transform="translate(-1345.69 -41)"/>
</svg>
