<svg id="Layer_2" data-name="Layer 2" xmlns="http://www.w3.org/2000/svg" xmlns:xlink="http://www.w3.org/1999/xlink" viewBox="0 0 250.53 181.09"><defs><style>.cls-1{fill:url(#新規グラデーションスウォッチ_5);}</style><linearGradient id="新規グラデーションスウォッチ_5" x1="292.4" y1="236.06" x2="480.05" y2="127.72" gradientUnits="userSpaceOnUse"><stop offset="0" stop-color="#c7954a"/><stop offset="0.15" stop-color="#ebc17f"/><stop offset="0.19" stop-color="#f0c785"/><stop offset="0.31" stop-color="#fdd894"/><stop offset="0.52" stop-color="#f8f5b9"/><stop offset="0.67" stop-color="#f3e1a2"/><stop offset="0.86" stop-color="#ebc17f"/><stop offset="0.95" stop-color="#d3a35b"/><stop offset="1" stop-color="#c7954a"/></linearGradient></defs><path class="cls-1" d="M341.81,222.86h.79a7.42,7.42,0,0,1,3.58.52,4,4,0,0,1,2.39,3.77c0,2.39-1.58,4-4.68,4.74l-.29.07a4.65,4.65,0,0,1,3.32,4.16,4.1,4.1,0,0,1-3.69,4.09,21,21,0,0,1-2.61.18c-.52,0-1,0-1.31,0H332.7l.13-.47c1.4-.21,1.76-.48,2.34-2.19l.16-.5.08-.24,3.42-10.8.08-.28.16-.51a4.55,4.55,0,0,0,.24-1.15c0-.66-.62-.92-1.7-1l.14-.42ZM337,239.8h2.16c2.29,0,3.26-.17,4.13-1.07a5.29,5.29,0,0,0,1.21-3.5,2.87,2.87,0,0,0-1.76-2.92,7.35,7.35,0,0,0-2.48-.32h-.79Zm4.11-8.4h.42a4.39,4.39,0,0,0,2.89-.78,5.28,5.28,0,0,0,1.9-4.05,2.89,2.89,0,0,0-2.83-3.17,1.44,1.44,0,0,0-1.52.88c-.1.23-.21.52-.45,1.23-.13.43-.28.82-.39,1.19l-1.5,4.7Zm9.76,9.1c-1.41,0-2.3-1-2.3-2.7,0-2.12,1.41-5.11,3.47-7.44,1.41-1.58,2.53-2.32,3.57-2.32a1.54,1.54,0,0,1,1.69,1.6,2.88,2.88,0,0,1-.8,1.9,18.74,18.74,0,0,1-4.11,3,9.49,9.49,0,0,0-1,.63,11.9,11.9,0,0,0-.69,3.16c0,.77.4,1.26,1,1.26.95,0,2-.94,3.3-2.87l.15-.25.37.22C354.1,239.1,352.35,240.5,350.89,240.5Zm3.16-7.78c1.43-1.44,2.09-2.5,2.09-3.39,0-.52-.26-.86-.66-.86-.66,0-1.35.66-2.15,2.06a18.61,18.61,0,0,0-1.67,3.89A10.16,10.16,0,0,0,354.05,232.72Zm5.28,5.28a4.12,4.12,0,0,0-.29.93.18.18,0,0,0,.17.18c.37,0,1.38-1.16,2.73-3.15l.12-.17.36.28-.08.17c-1.7,2.7-3.25,4.26-4.76,4.26a.81.81,0,0,1-.83-.89,4.6,4.6,0,0,1,.37-1.52l.8-2,4.58-11.3a3.7,3.7,0,0,0,.37-1.12c0-.29-.2-.37-1-.4h-.29l.15-.37h3.73Zm12.41-7.43c0,2.58-2.1,4.92-4.43,4.92a2.07,2.07,0,0,1-.71-.11l-.15.11c-.66.54-1,.85-1,1.12s.31.51,1.55.9l1.38.4c1.69.49,2.38.87,2.9,1.55a2.07,2.07,0,0,1,.46,1.28c0,1.74-1.93,2.89-4.94,2.89-2.79,0-4.74-.85-4.74-2.07,0-.74.67-1.63,1.91-2.21l1-.43.32-.14c-.86-.4-1.07-.72-1.07-1.35,0-.78.57-1.37,1.89-2.32a3.2,3.2,0,0,1-1.29-2.61,4.67,4.67,0,0,1,4.56-4.41,2.15,2.15,0,0,1,2,.95,3.34,3.34,0,0,0,1.06-.51,2.58,2.58,0,0,1,1.38-.47.8.8,0,0,1,.89.77c0,.43-.35.7-.92.7a4.91,4.91,0,0,1-.95-.11,3.1,3.1,0,0,0-.66-.1,1.76,1.76,0,0,0-.6.13A2.48,2.48,0,0,1,371.74,230.57Zm-6.32,8.75c-1.49.64-1.93,1.05-1.93,1.76,0,1,1.21,1.67,3.28,1.67a10.12,10.12,0,0,0,2.81-.4c.78-.27,1.15-.62,1.15-1.15s-.46-.95-1.46-1.24l-1.44-.4-1.49-.43-.29-.08A5,5,0,0,0,365.42,239.32Zm4-10.8a2.34,2.34,0,0,0-1.72,1.22,8.92,8.92,0,0,0-1.41,4.08c0,.74.33,1.19.86,1.19s1.08-.48,1.72-1.38a7.8,7.8,0,0,0,1.47-3.87C370.33,229,370,228.52,369.41,228.52Zm7.06,10.68a3.54,3.54,0,0,1-2.35,1.36.82.82,0,0,1-.86-.89,5.58,5.58,0,0,1,.43-1.7l.2-.51.26-.66,2.61-6.34.11-.29a1.17,1.17,0,0,0,.12-.4.19.19,0,0,0-.18-.17c-.17,0-.38.14-.93.75a21.57,21.57,0,0,0-1.78,2.27l-.35-.19c1.58-2.47,3.59-4.37,4.65-4.37a.83.83,0,0,1,.86.84,2.92,2.92,0,0,1-.23,1c-.11.29-.37,1-.57,1.44s-.23.57-.26.6l-2.41,6.23-.09.23c-.14.38-.12.4-.12.48s.05.17.14.17.53-.19,1.27-1.08c.52-.66.86-1.06,1.12-1.43l.29.2A20.68,20.68,0,0,1,376.47,239.2ZM379,225.42a1.3,1.3,0,0,1-1.3-1.26,1.28,1.28,0,1,1,1.3,1.26Zm10.14,9.68c0,.09-.12.32-.26.66l-.69,1.75a6.08,6.08,0,0,0-.49,1.5c0,.11.06.17.11.17a3.74,3.74,0,0,0,1.3-1.12c.34-.4.66-.83,1-1.35l.32.14a14.86,14.86,0,0,1-1.73,2.16,3.81,3.81,0,0,1-2.5,1.49.64.64,0,0,1-.71-.71,3.15,3.15,0,0,1,.31-1.27s.81-2.33.83-2.44l.06-.2c-.63.86-1.55,2-2,2.47-1.18,1.26-2.61,2.15-3.45,2.15-.54,0-.86-.43-.86-1.12A6.52,6.52,0,0,1,381,237l.29-.72,1.52-3.79.26-.63.4-.95a4.49,4.49,0,0,0,.38-1.21.24.24,0,0,0-.2-.26c-.18,0-.41.17-.81.61a11.2,11.2,0,0,0-1.35,1.75l-.31.54a1.08,1.08,0,0,0-.12.15l-.32-.12c1.36-2.5,3.25-4.36,4.43-4.36.51,0,.77.37.77,1a8.77,8.77,0,0,1-.8,2.93l-.14.4-1.81,4.45-.2.58-.29.72c-.15.4-.18.4-.18.57a.33.33,0,0,0,.34.34c1.13,0,4.15-3.93,5.87-7.78l1.38-3.1h1.95Zm19.9,1.35a18.13,18.13,0,0,1-2.42,2.85,3.76,3.76,0,0,1-2.29,1.26c-.46,0-.69-.29-.69-.8a4,4,0,0,1,.29-1.3c.08-.23.11-.28.4-1a2.68,2.68,0,0,1,.23-.51l2.7-5.78.23-.48c.29-.61.34-.74.34-.91a.36.36,0,0,0-.4-.4c-.35,0-.81.31-1.59,1.12a32.61,32.61,0,0,0-6,9,9.19,9.19,0,0,0-.43.9h-2c.35-.69.64-1.27,1.56-3.28.74-1.64,1.14-2.64,1.57-3.79a14.68,14.68,0,0,0,1.09-3.55.42.42,0,0,0-.37-.46c-.35,0-.92.49-1.76,1.46a28,28,0,0,0-3.69,5.34l-1.07,2.06c-.57,1.15-.83,1.67-1.06,2.22h-1.92l2-4.89c.05-.14.14-.34.28-.72.66-1.55,1.21-2.95,1.56-3.87a4.05,4.05,0,0,0,.3-1.17c0-.11-.05-.2-.17-.2-.43,0-1.6,1.4-2.78,3.55l-.31-.11.05-.12c1.5-2.9,3.25-4.8,4.34-4.8.46,0,.78.41.78,1.07a5,5,0,0,1-.2,1.23c-.12.43-.44,1.41-.64,2l-.3,1a5.55,5.55,0,0,0-.18.58c.18-.26.29-.44.32-.49l.91-1.18A19.84,19.84,0,0,1,401,228.7a2.32,2.32,0,0,1,1.43-.61,1.06,1.06,0,0,1,1.15,1.09,6.28,6.28,0,0,1-.26,1.41c-.2.69-.51,1.67-.86,2.62a3.9,3.9,0,0,0-.31,1l.4-.58a22.28,22.28,0,0,1,3.7-4.25,3.93,3.93,0,0,1,2.41-1.29,1.08,1.08,0,0,1,1.18,1.15,4.38,4.38,0,0,1-.4,1.61l-.29.72c-.06.17-.11.31-.14.37l-2.76,5.86-.17.4c-.26.55-.17.4-.17.54a.18.18,0,0,0,.17.17c.35,0,1.09-.68,2.44-2.43l.14-.2Zm12.07.26c-.17.52-.31.91-.37,1.1l-.3,1a2.17,2.17,0,0,0-.1.53c0,.44.42.54,1.77.65l-.15.47H416l.15-.44c1.52-.11,1.74-.3,2.84-3.45l3.65-10.45-.92.27c-.4.12-1.78.37-1.78.37l0-.38a28.08,28.08,0,0,0,5.32-2.7l.28.27Zm8.3-2a2.79,2.79,0,0,1-2.87-2.84,10.06,10.06,0,0,1,2.62-5.93,5.42,5.42,0,0,1,3.6-2c1.83,0,3.07,1.68,3.07,4.19,0,5.24-4.56,10.61-10.72,12.71l-.13-.55a14.13,14.13,0,0,0,6.35-6A4.81,4.81,0,0,1,429.36,234.67Zm3.5-10.12c-.79,0-1.64.72-2.48,2.11a13.29,13.29,0,0,0-1.75,5.59c0,1.07.51,1.69,1.41,1.69s1.72-.67,2.48-2.15a14,14,0,0,0,1.6-5.66C434.12,225.16,433.61,224.55,432.86,224.55Zm7.88,13.92h.58c1.5,0,1.67-.11,2.12-1.15l.42.19-1.15,2.92h-8.37a13.6,13.6,0,0,1,1.81-3.44,33,33,0,0,1,5.29-5.6c2.47-2.26,3.24-3.36,3.24-4.68a1.8,1.8,0,0,0-2-1.83c-1.6,0-3.14,1.07-4.49,3.05l-.59-.32a7.39,7.39,0,0,1,6.08-3.72c2,0,3.32,1.05,3.32,2.65a4.14,4.14,0,0,1-1,2.62c-.79,1-1.35,1.43-4.05,3.36-3.66,2.65-4.89,4.14-5.71,5.95Zm10.46-8.21a3.36,3.36,0,0,1,1.47-.33,3,3,0,0,1,3.19,3,10.34,10.34,0,0,1-2.75,6.16,4.61,4.61,0,0,1-3.48,1.71c-1.83,0-3-1.74-3-4.44a11.88,11.88,0,0,1,4.59-8.85,22.24,22.24,0,0,1,6.19-3.64l.31.5A16.78,16.78,0,0,0,451.2,230.26Zm1.13.49c-.9,0-1.66.72-2.42,2.2a12.68,12.68,0,0,0-1.66,5.3c0,1.17.48,1.86,1.29,1.86s1.66-.9,2.59-2.57a12.87,12.87,0,0,0,1.78-5.06A1.61,1.61,0,0,0,452.33,230.75ZM343.05,171.09c12.32,0,22,7.77,22,20.53,0,12.26-9.12,22.4-22.32,22.4-15,0-21.6-11.67-21.6-21.52,0-8.87,6.82-21.41,21.93-21.41m1.16,40.47c4.92,0,14.56-3.12,14.57-18.4,0-11.81-7.46-19.83-16.12-19.83-9.13,0-15.44,6.07-15.45,17.63C327.2,202.84,334.35,211.56,344.21,211.56Zm33.6-2.33c.27-2.31.27-6.63.27-11.89v-9.62c0-8.56.05-10.08-.1-11.84l0-3.89c.66,0,7.08-.15,10.37-.15,5.41,0,15.89-.5,22.4,6.23A19.53,19.53,0,0,1,416,192a22.36,22.36,0,0,1-5.91,15.44c-2.35,2.47-7.76,6.3-17.06,6.3-4.71,0-14.83-.66-15.38-.66l.12-3.83m5.93-15.61c0,5.8.07,10.84.11,11.88a9.24,9.24,0,0,0,.83,3.8c.7,1,2.1,2.18,8.56,2.18,5.1,0,9.15-1.48,12.37-4.72,2.86-2.79,4.39-8,4.39-13.08a19.61,19.61,0,0,0-5.25-13.8c-5.16-5.43-10.75-5.82-17.26-5.82a10.5,10.5,0,0,0-3,.38,1,1,0,0,0-.65,1.1c-.07,1.86-.07,7.08-.07,11.29Zm44.89,19.58c1,.08,1.85-.14,3.3-.16s2.25.13,3.44.16l-.35-4c-.28-2.31-.27-6.63-.27-11.88V187.7c0-8.55,0-10.08.11-11.84l.09-4.05c-.65,0-2.2.17-3,.17-1.14,0-2.52-.16-3.28-.17l.32,4.05c.11,1.76.12,3.29.12,11.84v9.63c0,5.25,0,9.57-.28,11.88Zm-126.09-4.64a2,2,0,0,1-1.09,1.92,13.12,13.12,0,0,1-5.72.93,18.88,18.88,0,0,1-13.79-5.64,22.34,22.34,0,0,1-5.8-15.17c0-6.41,2.33-11.42,5.52-13.9,3.9-3,7.61-3.35,11-3.35,7.08,0,10.8,2.56,12.64,4.22.52.47,1.25,1,1.25,1,.71.68,1.26.92,1.27.32a29.51,29.51,0,0,1,.39-5.89c0-.22-.11-.44-.66-.5a27.41,27.41,0,0,1-4.44-.53,49.15,49.15,0,0,0-8.64-.94c-4.21,0-10.32.38-15.25,3.46s-9.21,9.24-9.2,18a21.8,21.8,0,0,0,6.53,15.33c5.48,5.22,13.54,6.16,18.74,6.13,3.19,0,8.63-.6,12.14-2.46.66-.38.71-.5.71-3v-6.14c0-2.29,0-3.94.12-5.69l0-4c-.92,0-2,.17-2.91.16-1,0-1.91-.17-2.84-.16,0,0,0,2.13,0,6.57Zm176.19-32.42c-1.21,3.94-8.18,21.43-11.35,28.76l-10.06-26.42c-.81-2.12-2.23-6.67-2.23-6.67-.67,0-2.88.17-3.44.17s-2.47-.21-3.49-.17l2.11,5.2,13.59,33.56c1.05,2.63,1.42,3.41,2.08,3.39s.9-.87,2.43-4.15c1.26-2.68,3.68-8.66,7.16-16.6,3-6.77,5.79-13.29,6.4-14.83l2.6-6.46c-1.6,0-1.67.06-2,.06-.65,0-2-.12-2.37-.16Zm35,34.73L509,198.4a.49.49,0,0,0-.5-.33H496.72a.57.57,0,0,0-.55.44L493,207.2c-.49,1.37-2.13,6-2.13,6s-1.1-.05-1.71-.05-1.61.11-2.25.05l2.38-6,12.9-33.94c.66-1.8,1.13-2.13,1.46-2.13s.83.39,1.48,2.09c.83,2.09,9.5,24.49,12.81,32.84l2.7,7.16c-.81,0-2.27,0-6.05-.11l-.8-2.24m-6.08-15.26c.26,0,.26-.17.23-.38l-5.09-14.74c-.21-.43-.38-.43-.61,0l-4.91,14.74c-.12.27,0,.38.16.38ZM412.05,75.45a3.08,3.08,0,0,0-1.68,2.15,22.45,22.45,0,0,1,.34-2.3l0-.19a6.1,6.1,0,0,0,1.07-3c.05-1.5.47-4-2.28-5.43l-1.27.13c3.18.85,2.85,3.07,3,5.14a4.8,4.8,0,0,1-1.09,3,6.7,6.7,0,0,1-.95.65,1.38,1.38,0,0,0,.8.08c-.19,1.35-.15,2.53.76,3.26a1.35,1.35,0,0,1-.38-1.08,3.11,3.11,0,0,1,2.56-1.9A3.63,3.63,0,0,1,412.05,75.45Zm-10.78,30a5,5,0,0,1-.37-.63A6.12,6.12,0,0,1,402.5,97l-1-1.24c-1.3,1.11-4.42,5.89-1.17,10.5A1.75,1.75,0,0,0,401.27,105.47Zm3.17,4.83c1,.84,1.95,1.67,2.95,2.47q1,.86,2.1,1.68c.59.45,1.66.85,1,1.6a24.11,24.11,0,0,0-1.73,1.93,23.55,23.55,0,0,0-3.57,8.44,31,31,0,0,0-.68,3.43,10.55,10.55,0,0,1-.42,2.32c-.26.69-2.8,2-2.95,2.69-.22,1,1,2.34,1.23,3.33.17.65.66,3.7.74,4.36a2.05,2.05,0,0,0,.22.6c.06.12.12.25.17.37a1.11,1.11,0,0,0,.07.16s.06,0,.07,0,.08-.2.09-.25.08-.26.13-.39c.09-.32.19-.64.3-1l.73-2.1c.16-.45.32-.89.47-1.34.29-.88.81-5.06.92-5.31a47.61,47.61,0,0,1,5.18-8.2c1.36-1.91,2.77-3.8,4.18-5.67.52-.69,1.07-1.37,1.57-2.07.95-1.33.28-2.69-.45-3.94s-1.45-2.36-2.21-3.53c-1.34-2.06-2.75-4.08-4.2-6.06a5.11,5.11,0,0,0-.93.48c.59.71,1.24,1.41,1.73,2.11a70,70,0,0,1,3.85,6.08c.36.63.71,1.28,1,1.93a4.67,4.67,0,0,1,.35.75c.4,1.38-1.28,2.69-2,3.66-.94,1.25-1.85,2.54-2.71,3.85a92.22,92.22,0,0,0-4.67,8.06l-.6,1.19a38,38,0,0,0-1.42,6c-.07.37-.15.74-.23,1.1-.2.89-.43,1.78-.65,2.67-.09.35-.17.7-.26,1.06l-.09.4c0,.06,0,.36-.13.32s-.05-.18-.05-.22,0-.17-.05-.26l-.09-.54c-.06-.4-.13-.79-.18-1.19-.1-.79-.19-1.59-.27-2.39-.05-.58-.1-1.15-.12-1.74,0-1-1-1.55-.54-2.43l0-.06a14.31,14.31,0,0,1,1.16-1.53c.2-.25.81-.89.89-1s.12-.3.14-.44a47.2,47.2,0,0,1,1.72-6,32.67,32.67,0,0,1,3.1-6.61c.33-.51.68-1,1.05-1.48a3.4,3.4,0,0,0,.91-1.43c.19-1.14-1.14-1.9-1.85-2.54-1.22-1.11-2.43-2.22-3.62-3.36-.23-.22-.48-.44-.71-.67Zm30.81-2.89a13.65,13.65,0,0,1-.31-3.22c-.17.14-.25-.67-.35-.45a6.2,6.2,0,0,0-.32,3.28,18.62,18.62,0,0,0,2,6c3.27,6.72.85,12.51-2.06,13.69,1.53,4.61,4.19,9,4.64,14.06a56.4,56.4,0,0,0,2.37,11.78c-.87-1.75-2.19-3.8-3-5.72-2.2-5.19-3.64-10.28-4.82-12.37a32.34,32.34,0,0,0-3-4.82,3.35,3.35,0,0,1-.36,2.46c2.56,2.75,3.62,6.6,5.3,10-.06,3,6,13,7.28,15.2a21.66,21.66,0,0,1,1.77,5.4s4.77,0,4.84,0a13.45,13.45,0,0,0-1.46-2.21c-.62-.7-2.79-2.68-3.2-3.28a23.31,23.31,0,0,1-2.16-4,23.78,23.78,0,0,1-2-10c.18-4.89-2.09-8.95-3.12-13.56-.15-.67-.5-2-.5-2,1.58-2,5.15-7,.72-13.72C436.37,112.29,435.78,109.62,435.25,107.41ZM450.6,89.29c.31-.35,2-2.07,1.9-2.44s-1.62.29-3.11,1c-.46-.58-.94-1.18-1.19-1.45l-.09-.1c1.27-.76,2.39-1.48,2.36-1.7-.12-.7-2.55-.77-5-.45-12.52-8-29.66-.1-33.35,13.66-.12.42.14,2.07.08,2.52a5.72,5.72,0,0,1-1.74,3.15c.1.07.94.16.94.2a6.2,6.2,0,0,0,.1,1.2c.08.13.9,1.21.9,1.18,0-.48,0-1,0-1.42C413.31,90,428.12,78.91,441,85.17a14,14,0,0,1,5,4.12c-.08-.1.25,3,.16,2.87.33,1.2.14,1,0,2.35,0,.51-.76.82-1.3,2.71-.49,1.74-.7,13-.54,13.65.22.95-.32,1-.83,1.66a2.59,2.59,0,0,1-1.51,1.15c-1,.19-.55-.93-3.33-1.25-.41-.05-1.22-4.51-1.27-5.31-.39-5.24-5-10.7-5.2-11.5,0,0-.21,2-.18,2.09.34.59,3.53,6,3.93,6.89a18.71,18.71,0,0,1,1.14,3.66c.16.68.51,4.51.91,4.88a3.42,3.42,0,0,0,2.13.9c.55,0,1.07,1.28,2,1.21,1.38-.11,1.5-1.18,1.93-1.5,1.81-1.38,1.11-4.38,1.15-5.33.11-3.11.71-8.9.84-9.7.4-2.43.68-1.11,1.21-2.09.33-.56-.32-4.14,0-4.43C447.63,91.15,449.84,90.13,450.6,89.29Zm-62-6.94c.06-.56.81-.63,1.18-.82.59-.32.52-.82.51-1.44,0-1.53-.58-3.4.43-4.74a9.34,9.34,0,0,1,3.82-3c2.14-.89,4.29-1.72,6.38-2.71a10.37,10.37,0,0,1,1.21-.59c.51-.15,1-.29,1.54-.45a23.49,23.49,0,0,0,3-1.08,5.1,5.1,0,0,0,1.19-.7c.26-.21.65-.47,1-.33.19-.27.25-.88-.11-1.06-.7-.37-1.1.5-1.47.89a6.09,6.09,0,0,1-2,1.15c-.75.32-1.4.6-2.13.93s-1.72.56-2.55.9c-2.55,1-5.36,1.76-7.75,3.16A7.86,7.86,0,0,0,390,74.9c-.66,1.17-.44,2.22-.33,3.49a2.73,2.73,0,0,1-.39,2.14A2.4,2.4,0,0,0,388.6,82.35Zm28-5.54c1.56,1.34,1.89,2,2,3.64a7,7,0,0,1-.92,3.66c-.17.37-.34.65-.07,1s.6.44.48.79a1.58,1.58,0,0,0,.11-1.24,1.74,1.74,0,0,1,.32-1.38,3.68,3.68,0,0,0,.87-2.64c0-1.8-1.41-3.43-3.24-4.62-.87-.55-3.08-1.37-3-2.51a1.91,1.91,0,0,0,.85,1.72C414.47,75.65,416.25,76.5,416.62,76.81Zm-18,20.53a2.23,2.23,0,0,0,1-1.6c.09-.48.1-1.65.55-2a3.44,3.44,0,0,0-1,1c-.55,1-.07,2.11-1.6,2.46a3.38,3.38,0,0,0-1.41.51c-.44.36-.46,1-.9,1.33s-1,.14-1.49.21c-.61.1-.58.27-1.09.61a1.69,1.69,0,0,1,1.23-.13c.74.15,1.62.58,2.22-.07a1.54,1.54,0,0,0,.22-.3A4.51,4.51,0,0,1,398.6,97.34Zm4.31-31a17.45,17.45,0,0,1-3.57,2c-2.54,1-5.35,1.75-7.74,3.16s-4.35,3.48-4.67,6.24c-.13,1.08.81,2.71.45,3.53-.45,1-2.51,1-3.16,1.23-2,.56-3.43,1.79-3.13,3.23a5.68,5.68,0,0,1,.16,2.77c-.28,1.25-1.68,1.23-2.57,1.83-1.32.9-1.3,1.64-1.45,3.12s-1.12,1.45-1.94,2.37-.54,1.55-.8,2.64a1.67,1.67,0,0,1-1,1.34,0,0,0,0,0,0,.09c1.31.17,1.32-1.47,1.51-2.13a2.73,2.73,0,0,1,1.76-2.21c.54-.26,1.4-.31,1.66-.93.56-1.31-.4-2.34.69-3.43.84-.82,2.31-.68,3.13-1.58,1-1.1.16-2.55.11-3.06a3.26,3.26,0,0,1,1.25-3.15,6.11,6.11,0,0,1,2.58-.42,3.18,3.18,0,0,0,1.39-.25,1.58,1.58,0,0,0,.5-.45c.71-.84.25-1.71.16-2.88a8.09,8.09,0,0,1,5.07-8c2.13-.88,4.29-1.72,6.37-2.7,1.38-.66,2.59-1.61,3.94-2.3,1.07-.55,2.84-1.41,4-.58C407.62,63.39,403.54,65.92,402.91,66.36ZM387.07,90.84a1,1,0,0,0-1.14.32c.22-.28,1.46.23,2.11.51a2.31,2.31,0,0,0,1.42-.09,4.84,4.84,0,0,0,2.11-3c1.08-3.75,3.85-5,7.79-6.73,2-.85,7.41-6,5.9-8.49-.38,1.38-2.12,1.47-3.21,2a33.6,33.6,0,0,0-4.39,2.44,17.18,17.18,0,0,0-3.28,2.73c-.52.56-1.12,2.21-1.64,2.56l.45-.3c2.89-4.06,7.69-6.14,11.46-7.76a15.68,15.68,0,0,1-6,6c-3.25,1.37-7,4.24-7.49,7.18a3.83,3.83,0,0,1-1.71,2.8,1.7,1.7,0,0,1-1,.3A5.39,5.39,0,0,1,387.07,90.84Zm-2.23-2.74c-.46.46-1.3.53-1.24,1.37.59-1.09,2.09-.67,2.34-2.27.13-.82.3-1.62,1.12-2,1.08-.45,1.86.61,2.91.33,1.4-.39,2.1-2,2.47-3.29,1.1-3.74,3.86-5,7.79-6.72,4.44-1.9,7.42-6,5.91-8.5-.38,1.39-2.12,1.47-3.22,2a33.49,33.49,0,0,0-4.38,2.44,17.24,17.24,0,0,0-3.29,2.73c-.51.56-1.11,2.2-1.64,2.55l.46-.3c2.89-4,7.7-6.13,11.46-7.75.09,1.5-2,4.69-6,6-3.35,1.11-6.87,4.35-7.4,7.29A4.57,4.57,0,0,1,391,84.39a2.21,2.21,0,0,1-1.19.64c-.81.1-1.62-.63-2.56-.53a2,2,0,0,0-1.9,1.53,2.82,2.82,0,0,0-.09.63A1.84,1.84,0,0,1,384.84,88.1Zm2.17,4a1.58,1.58,0,0,0-.39,0c0,.22.52.36.69.47.36.25.62.61,1,.86a3.84,3.84,0,0,0,1.19.57,3.69,3.69,0,0,0,2.76-.32,3.37,3.37,0,0,0,.46-.31c6.5-5.07,6.44-10.44,10.28-14.7-.62.29-1.25.54-1.25.54-1.38,1.23-3.53,9.47-9.12,13.35a4.29,4.29,0,0,1-2.64.76,4,4,0,0,1-1.15-.25,6.62,6.62,0,0,1-1-.58,4.36,4.36,0,0,0-.42-.23A1.76,1.76,0,0,0,387,92.05Zm-6.69,7.41c.52-1.63,2.18-.73,3.4-.77,1.82,0,2-1.39,2.52-2.75s3.71-.71,5.16-.65c2,.08,2.6.29,4.27-1,1.88-1.47.87-4.85,2-6.63-.57.91-1.41,1.06-1.68,2.3-.2.88-.4,3-1,3.74-1.31,1.6-2,1.27-3.88,1.22-1.23,0-4.2-1-5,.07-.93,1.21-.64,2.82-2.39,3.09-1.22.19-2.88-1.19-3.66,1.4C380,99.6,380.28,99.6,380.32,99.46Zm7.44-3c1-1,2.74-.47,3.84.09a6.19,6.19,0,0,0,8.17-8.75c-.3-.52-.8-2.08.22-4.54l-1.11,1.87a3.74,3.74,0,0,0,.25,2.67c2.91,3.9-.16,10.69-7.57,8.26-1.09-.35-2.56-.88-3.69-.42-1.53.63-.92,2.91-2.76,3.34a4.71,4.71,0,0,1-1.92-.29c-.19,0-.39-.09-.58-.15s-.49-.16-.56,0c.29.12.6.2.88.34s.6.28.9.4a3.37,3.37,0,0,0,2,.15C387.54,99,386.75,97.43,387.76,96.46ZM389,108.22c.5.2.89-.08,1.35,0,.25.07.45.27.71.34.58.16,1.17-.33,1.76-.3a3.81,3.81,0,0,1,1.94.82c.95.58,1.73.05,2.25-.75.42-.65.64-1.2,1.35-1.57,1.09-.57,2.43,0,3.27-1s.26-2.45.88-3.48c1.07-1.78,2.51-1.32,4.27-1.51,1.19-.13,2.66-.38,3.3-1.47a3.28,3.28,0,0,0,.28-2.53c-.07,1.15-.17,2.2-1,2.74a4,4,0,0,1-1.76.46,25.79,25.79,0,0,0-3.4.15,2.88,2.88,0,0,0-2.21,2.3c-.26,1-.16,2.7-1.19,3.32-1.44.87-2.53-.24-3.83,1.26-.52.6-.88,1.68-1.85,1.5-.77-.14-1.28-1-2.13-.88-.5.05-.92.61-1.42.59-.34,0-.57-.38-1-.45-.62-.12-1.75.62-2.08-.26C388.6,107.88,388.53,108,389,108.22ZM410.7,65.59c.63,0,1.16.4,1.8.37a1.59,1.59,0,0,0,1.14-.47c.2-.25.11-.83.58-.82s.44.55.36.87-.61.4-.29.8.75.2.67-.23c-.41,0,.23-1.14-.1-1.62s-.93-.57-1.23-.18,0,1.38-1.11,1.26c-1.24-.12-2.83-.79-3.77.46-.16.21-.33.59-.07.82a2.85,2.85,0,0,1,.23-.26A2.42,2.42,0,0,1,410.7,65.59Zm-2.18.82h.11a6,6,0,0,1,.52-1,3,3,0,0,1,.89-.8,2.17,2.17,0,0,1,2-.15c.41.29.44,1.12,1.09,1,.22-.42-.88-1.34-1.16-1.49a2.29,2.29,0,0,0-3.42,1.19A1.48,1.48,0,0,0,408.52,66.41ZM400.91,66a3,3,0,0,0,1.82-1.52,3.48,3.48,0,0,1,1.08-.94.94.94,0,0,1,.89-.13c.23.11.38.44.63.48.76.11,1.21-.92,2-.57s.67,1.27.92,1.92a6.34,6.34,0,0,0,.39.66,3.06,3.06,0,0,0-.38-2.65,1.53,1.53,0,0,0-2.13-.44c-.8.46-1.76-.17-2.53.27a6.06,6.06,0,0,0-1.36,1.49,1.57,1.57,0,0,1-1.83.63,1.47,1.47,0,0,0-1.7,1.29c-.13.63-.11,1.73-.82,2,.74.36,1-.45,1.22-1A2.18,2.18,0,0,1,400.91,66ZM379.6,96.32c1.11.65,1.61-.21,2.52-.65.72-.34,1.41.19,1.79-1.22a2.67,2.67,0,0,1,1.42-1.71,3.24,3.24,0,0,1,2.82.34c0-.14.06-.16,0-.29a1.32,1.32,0,0,0-.22-.26,1,1,0,0,0-.59-.35,3.39,3.39,0,0,0-.82-.2c-3.34,0-2.42,2.31-4,2.59s-1.56,1.73-2.9,1.75m-10.52,6.13-1.06,0c-5.83-.34-7.66-2.25-12.07-.16a2.89,2.89,0,0,0-.35.19c-4.31,2.3-2.81,6.16-5.63,8.56-2.54,2.15-7.21,3.35-9.37,5.07a6.31,6.31,0,0,0-2.05,3.45,8.7,8.7,0,0,0,1.2,6.3c1.05,1.71-.69,2.75-.29,4.46.36-1.29,1.25-2,1.49-3.16a3.84,3.84,0,0,0-.73-2.79,7.84,7.84,0,0,1-.83-4.45c.26-1.61,2.1-2.63,3.7-3.27,4.28-1.67,8.52-4.38,9.56-8.61,1.6-6.5,7.92-6.32,12.27-5.57A15.24,15.24,0,0,0,357,104.6c-2.53,1.65-3.42,5.42-4.38,6.48-5.07,5.58-11.44,6-11.1,16.37a16.44,16.44,0,0,1-1,2.92,5.67,5.67,0,0,0-.47,2.22,2,2,0,0,0,1,1.75,3.52,3.52,0,0,1-.57-1.56,4.44,4.44,0,0,1,.46-1.71c.31-.83.64-1.64.89-2.49a22.11,22.11,0,0,0,.73-4.2c.53-6.19,4.69-7.76,10.15-11.16a5.48,5.48,0,0,0,2.31-3.2,9.93,9.93,0,0,0,.45-1.94,3.49,3.49,0,0,1,.83-2.21c.14-.14,1.09-.87,1.25-1a13.86,13.86,0,0,1,5.55-1.8,18,18,0,0,1,4.38-.13l.37.08a21.75,21.75,0,0,0-7,1.5,10.24,10.24,0,0,0-1.16.53l-.94.55a5,5,0,0,0-2.4,3.86c-.29,1.86-.7,3.64-2.56,4.5-12.31,5.76-9.08,10.38-10.79,14.21-1,2.24-1.8,4.06-1.15,6.44.39,1.44,3.17,5,9.44,5.83-3-1.44-10-2.84-8.86-8.8.39-2,2.08-5.32,2.32-7.86a5.38,5.38,0,0,1,1.21-2.44c2.24-2.91,6.57-3.7,9-6.28a8.85,8.85,0,0,0,2.72-5.09c.16-.83.4-3.16,2.4-4.37a12.91,12.91,0,0,1,3.61-1.34c1.08-.24,2.27-.34,3.5-.49-.25,0-.58.16-.74.21-.45.11-.89.25-1.32.4-.89.3-1.75.66-2.59,1-1.75.79-3.29,2-3.52,3.34-1.25,7.54-7.4,9.1-11.68,14a6,6,0,0,0-1.08,1.89,8.8,8.8,0,0,1-.87,2.22c-2.8,4.53-2.34,12.4,5.85,11.47-3.66-.53-7.23-3.16-7-6.55.47-2.28,2-4.38,2.81-6.16s1.09-2.76,2.41-3.67c5.17-3.57,9.73-6.4,9.81-11.5a5.37,5.37,0,0,1,3-4.31,21.8,21.8,0,0,1,4.45-1.69,37.8,37.8,0,0,0-5,3c-1,.75-2.1,3.29-2.2,5.12-.33,5.65-3.77,7.52-9.07,10.83-2.59,1.62-4.2,5.17-4.46,7.8a4.55,4.55,0,0,0,1.4,4.14,6.08,6.08,0,0,0,2.46,1.11c1.58.41,2,.53,2.9,1.75a4.92,4.92,0,0,0,2.89,1.83c-1.29-1.25-1.16-2.82-2.37-4-1-.93-2.63-.75-3.76-1.42a3.79,3.79,0,0,1-1.75-3c-.37-2.92,1.24-5.87,3.72-7.83a4.35,4.35,0,0,1,1.12-.5,15.37,15.37,0,0,0,5.6-3.63,9.52,9.52,0,0,0,2.1-3.78,10.29,10.29,0,0,0,.36-2.52,12.26,12.26,0,0,1,.36-3c.56-2.24,2.37-3.4,3.44-4.17a9.08,9.08,0,0,1,2.47-1.12l1.89-.6s1.43-1.59,1.54-1.82S369.31,102.4,369.08,102.45Zm35.39,29s.18-1.52.16-1.53a67,67,0,0,1-12.94-2.38c-.12,0-.16-3.47-2.84-5.3-.35-.25.24,1,.42,2.32a29.78,29.78,0,0,1,.14,4.14c0,4.7-2.22,13.39-2.18,13.66.26,1.49.38,2.75,2.86,4.4,3.71,2.49,10.55,9.43,10.68,10-7.56-5.77-13-9.05-16.61-10-1.1-.29-2.26-13.62-8.42-18.34-3-2.32-6.4-4.3-7.74-6.93-3.82-7.49-1.48-16.71,8.37-20.58,7.78-3.06,19,.42,23,1.8.1,0,.11-.82-.07-.9-3.15-1.33-15.24-5.15-24.64-1.79-10.56,3.77-13.44,14-7.84,23.13,3.65,6,12.16,6.7,13.17,17.36.21,2.25.4,3.8.43,4.84a2.69,2.69,0,0,0,2.51,2.71c3.11.5,18.95,8.78,20.09,13.34a2.23,2.23,0,0,1-.23,1.31l5.5,0c0-.47-1.2-2.25-1.74-3.09-1.31-2-10.63-8.94-11.5-9.76-5.57-5.25-6-9.19-6-9.85,0-.33,1.53-10.09,1.66-11,0-.07,0-.09,0-.06.15.05-.16-2.58,0-2.52s.7,2.76.81,2.8A65.58,65.58,0,0,0,404.47,131.42Zm10.83.2c.36.84,3.75,4.17,5,5.14s5.18,4.71,7.25,6c.79.5,2,1.29,1.89,2.4a7.83,7.83,0,0,1-1.31,2.73c-.9,1.54-1.77,3.78-3.1,5-.32.3-4.53.77-4.55.83-.12.63.2,4.94.08,5.37,0,0,4.39-2.49,5-3.11,1.29-1.23,2.13-3,3.55-4.45,1-1.05,4.88-5.54,4.79-7.09-.07-1.16-1-2-1.49-2.9-.63-1.21-2.52-5.45-4.24-8.25-.07-.12,1-1.28,1.18-1.84a6.74,6.74,0,0,0-.17-3.53c-.1-.13-.66,1.59-1.57,2.87s-2.12,2-1.89,2.34c1,1.31,1.86,2.68,2.73,4.07,1.3,2.1,2.53,4.24,3.73,6.4.87,1.56-4.29,8-4.79,8,.41-.95,2-4.23,2.34-4.93s.88-1.21.8-1.94a3.12,3.12,0,0,0-1.45-2c-.63-.45-4.49-4.09-5.88-5.33-2.08-1.83-7.42-8-7.42-8-2.6.85-8,.7-8,.7l-1,1.55S412.39,131.84,415.3,131.62Zm-53.24,1.15c.11,0-.11,0,0,0Zm3.93,2.1c-1.55-.12-2,1.74-2.19,2-.07.11-.23,4-.47,6.83a20.55,20.55,0,0,1-.89,4.11c.64-4.51-.55-9.87-1.12-11.88-.37-1.27.39-2.63.89-2.72,1,.08,5.22-3.4,7.85-6.61,0,0,3.61,1.26,4.8,2.56s3,3.42,3,3.42C374.65,135.78,371.94,135.34,366,134.87Zm12.28-1.65c-1.74-2-9.5-8.11-9.5-8.11a12,12,0,0,1-1,1.9c-2.36,3.14-5.64,5.07-6,5a3,3,0,0,0-1.82,1.11,2.8,2.8,0,0,0-.25,2.64,30.91,30.91,0,0,1,1.46,9.57c-.08,2.2.17,4.1-.66,6.15-1,2.42-5.45,2.34-5.78,2.42l2.34,5c.37-.27,2.61-1.86,3-2.69.89-2,.93-2,1.51-3.53a68.89,68.89,0,0,0,2.45-6.82,32.27,32.27,0,0,0,.6-5,14.61,14.61,0,0,1,.31-2.28,2.44,2.44,0,0,1,.92-.91,12.18,12.18,0,0,1,3.2-.34c.38,0,5.55.42,8.31-2C377.38,135.31,378.88,133.91,378.27,133.22ZM439.18,158a2.26,2.26,0,0,1,0,4.52,2.26,2.26,0,0,1,0-4.52Zm0,.35a1.91,1.91,0,0,0,0,3.82,1.83,1.83,0,0,0,1.79-1.9,1.86,1.86,0,0,0-1.79-1.92Zm-.42,3.22h-.41V159A3.63,3.63,0,0,1,439,159a1.31,1.31,0,0,1,.79.19.66.66,0,0,1-.26,1.14v0c.22,0,.37.24.42.61a2.07,2.07,0,0,0,.16.62h-.42a1.85,1.85,0,0,1-.17-.64.47.47,0,0,0-.54-.44h-.28Zm0-1.39H439c.34,0,.61-.13.61-.43s-.16-.44-.61-.44l-.29,0ZM404.16,90l-.19.68s0,0,0,.06c0-.76,0-1.52,0-2.28A2.92,2.92,0,0,1,404.16,90Zm7-5.5a10,10,0,0,0-1.8,1.37,4.38,4.38,0,0,0-.43,1.34c-.2,1.12-.17,1.53-.78,2.13a36.48,36.48,0,0,1-3.84,2.46c.12-.31.23-.66.31-.93l.21-.74a3.12,3.12,0,0,0-.43-2.41,2.66,2.66,0,0,1-.27-1c.05-.34.1-.68.12-1,0-.6-.29-1.19-.29-1.74,0,.37-.34.76-.35,1.16,0,.85-.78,5.86,0,7.92.15.42,3.78-2.56,4.72-3.33,1.17-1,.94-2,1.34-3.27a7.53,7.53,0,0,1,1.63-1.73,16.84,16.84,0,0,1,1.69-.75A6.2,6.2,0,0,0,411.14,84.46Zm-.27-15.54a2.5,2.5,0,0,0-1.15,1,2,2,0,0,0,.21,1,6.57,6.57,0,0,0,.51.81c.07-.19-.21-.58-.24-.71a2.9,2.9,0,0,1-.13-.51c0-.71.72-.41.64-1.29m.24,18.3c-.37.82-.15,1.36-.74,2.13-1.54,2-7.28,6.95-7.56,6.66-1.37-1.42-1.86-5.77-1.86-8.93a22,22,0,0,1,.62-6,3.66,3.66,0,0,1,2.4-2.7,3.22,3.22,0,0,1,.86-.1c.95,0,3.05.66,3.43,1.71a3.47,3.47,0,0,0-1.54-1.76,19.57,19.57,0,0,0-.52-4.92s0,.13-.38.06-.5-.57-.5-.57a49.22,49.22,0,0,1,.9,5.19,3.79,3.79,0,0,0-2.42-.25,4.31,4.31,0,0,0-2.85,3.12,26.05,26.05,0,0,0-.7,7.07c0,2.82.47,7.61,2.16,9.29.8.8,7.88-6.72,8.47-8.12a21.76,21.76,0,0,1,1-2.37c.47-.87.83-2.21,1.3-3.06A18.16,18.16,0,0,0,411,87.52Zm1.41,8.61a2.94,2.94,0,0,1,.95-2.64,31.76,31.76,0,0,0,2.42-2.1,9.94,9.94,0,0,0-1.7,1.2c-.55.51-1.33.83-1.73,1.47a3,3,0,0,0-.44,1.72c-.1,1.52.6,2.91-.05,5.19a5,5,0,0,1-1.67,2.47c-.61.53-3,1.25-2.46,3.13.2.73.41,2.14-.55,2.45-.62.21-1.34-.29-2,0s-.71.86-1.24,1.12c-.69.36-1.51.18-2.14.62s-.78,1.16-1.62,1c.32.49,1.06,0,1.4-.23a2.84,2.84,0,0,1,1.82-.57c1.41.17,1.93-1.83,3.48-1.51,1.32.27,2.22-.12,2-1.63s-.4-2.47,1.5-3.66c1.64-1,1.53-.57,2.3-3.29C413.05,99.38,412.56,97.63,412.36,96.13Zm10.13-15.64c-.69-.54-1.46-.72-1-1.86a3,3,0,0,0,.39-1.88,1.93,1.93,0,0,0-.82-1.27,3.63,3.63,0,0,0-1.61-.44c-.61-.06-1.23-.06-1.84-.14a5.1,5.1,0,0,1-1-.19,1.07,1.07,0,0,1-.65-.54c-.3-.56.47-.73.8-1a2,2,0,0,0,.64-.76,1.49,1.49,0,0,0-.64-2.11.39.39,0,0,1-.14-.68,1.56,1.56,0,0,0-1.31-2.58c-.94,0-1.15.63-2.25.51-.57-.06-.94-.29-1.14-1.11a1.07,1.07,0,0,0-1.63-.71,1.55,1.55,0,0,0-.67.9c-.06.12-.29.44,0,.48s.18-.28.27-.4a.88.88,0,0,1,.27-.19.63.63,0,0,1,1,.36,7.75,7.75,0,0,0,1.22,3.21c.26.4.59.93.22,1.29s-.7.3-.74.8a.75.75,0,0,0,.83.87c.63-.09.57-1-.1-.91a.27.27,0,0,1,.17.46c-.36.25-.67-.2-.44-.5a4,4,0,0,1,.7-.54c.75-.6.28-1.33-.2-2a5,5,0,0,1-1.22-2.48c.82,1.69,2.75.51,3.82.32s1.49,1.25.56,1.87-.45,1.14.59,1.46A.94.94,0,0,1,417,71a.9.9,0,0,1,0,1.07,2.08,2.08,0,0,1-.47.55,4,4,0,0,0-.58.51,1.65,1.65,0,0,0-.26.44,1,1,0,0,0,0,.45.84.84,0,0,0,.32.42,4,4,0,0,0,.9.51,9,9,0,0,0,1.66.51A4.62,4.62,0,0,1,420,76a1.86,1.86,0,0,1,1.08,2.36c-.12.76-.83,1.13-.35,1.87.33.5,1.38.6,1.68,1.24.54,1.17-.31,1.53-1,2-.52.36-.92.6-1.06,1.21-.18.87.66,1.5.13,2.41a2.83,2.83,0,0,1-1.59,1c-.79.27-.86.71-1.54,1.18a26.56,26.56,0,0,0-2.13,2c-1.09,1-3.41,1-4.14,2.47-.84,1.7.34,4,0,5.72-.36,1.92-2.63,2.11-4.19,2.25-1.91.16-3.22.94-2.61,2.94.42,1.41.78,1.48.57,2.39-.25,1.16-1.71,1.26-2.61,1.61-1.16.46-1.75,1.7-3.87,1.74a6.23,6.23,0,0,0-2.39.11c-.92.34-1.75,1-2.79.22-.32-.23-.33-.79-.76-.92s-1.14.35-1.48-.33c-.14,1.17,1,.55,1.47.77s.79.93,1.39,1.2c.83.38,1.81,0,2.64-.25a5.54,5.54,0,0,1,2.26,0c1.41.14,1.93-.76,3-1.45s2.88-.62,3.76-1.59,0-2.57-.16-3.07c-.53-1.75.12-2.94,3.47-3.21a3.78,3.78,0,0,0,2.47-1.07c1.35-1.59-.09-4,0-5.69s1.72-1.77,2.83-2.53a15.87,15.87,0,0,0,2.51-2.54l.28-.27a15,15,0,0,1,2.81-1.73,2.44,2.44,0,0,0,1.4-1.73c.09-.84-.25-1.6.55-2.2.63-.46,1.57-.86,1.81-1.74S423.19,81,422.49,80.49ZM411.58,67.93a2.12,2.12,0,0,0,3.22,1c1.7-1.24,1.88-.35,1.41.13l.42-.07c.22-.9-.23-1.35-1.67-.62-1,.5-2.48.21-3.43-1.63Zm.12,4.3a3.28,3.28,0,0,0,.34,4c.69.6,2,.8,2.23,1.77.36,1.33-.62,2.62-1.07,3.84a5.4,5.4,0,0,0-.26,1.53c-.06.8.31,1.2.47,1.91a3.4,3.4,0,0,1-.06.91c0,.69.45,1.27.4,2-.09,1.58-1.3,2.49-1.67,3.92a3.86,3.86,0,0,1,1.22-1.48,2.53,2.53,0,0,0,.92-2.07c0-.74-.6-1.51-.52-2.25a5.37,5.37,0,0,0,.05-1.83,5.38,5.38,0,0,1,.26-3.34c.51-1.18,1.51-3.48-.1-4.3a4.56,4.56,0,0,1,.64.14,7.32,7.32,0,0,1,1.33.92c.69.61.63,1.36.3,2.46s-1.23,1.47-1.48,2.44a2.23,2.23,0,0,0,.06,1.33,3.48,3.48,0,0,1,.37,1.24c0,.44-.17.83.07,1.25s.41.52.56.83a7.75,7.75,0,0,1,.32,2.14c-.06-.39.21-.81.27-1.18a2.24,2.24,0,0,0-.07-.77,3,3,0,0,0-.58-1.12c-.3-.5,0-.88.05-1.38s-.34-1.25-.32-1.92.68-1.12,1-1.77a3.59,3.59,0,0,0,.15-3.4c-.87-1.42-3.08-1.55-4.24-2.53a2.59,2.59,0,0,1-.48-3.14l.08-.34Z" transform="translate(-270.07 -62.54)"/></svg>